<mxfile host="app.diagrams.net" modified="2023-10-30T10:13:59.482Z" agent="Mozilla/5.0 (Windows NT 10.0; Win64; x64) AppleWebKit/537.36 (KHTML, like Gecko) Chrome/118.0.0.0 Safari/537.36" etag="Yq6Ev5QwsT-dOU0nxEb8" version="22.0.8" type="github">
  <diagram id="C5RBs43oDa-KdzZeNtuy" name="Page-1">
    <mxGraphModel dx="1000" dy="562" grid="1" gridSize="10" guides="1" tooltips="1" connect="1" arrows="1" fold="1" page="1" pageScale="1" pageWidth="827" pageHeight="1169" math="0" shadow="0">
      <root>
        <mxCell id="WIyWlLk6GJQsqaUBKTNV-0" />
        <mxCell id="WIyWlLk6GJQsqaUBKTNV-1" parent="WIyWlLk6GJQsqaUBKTNV-0" />
        <mxCell id="3sGwbU38S0w3fbwhB4b_-9" value="" style="edgeStyle=orthogonalEdgeStyle;rounded=0;orthogonalLoop=1;jettySize=auto;html=1;exitX=0.25;exitY=0;exitDx=0;exitDy=0;" edge="1" parent="WIyWlLk6GJQsqaUBKTNV-1" source="3sGwbU38S0w3fbwhB4b_-0" target="3sGwbU38S0w3fbwhB4b_-6">
          <mxGeometry relative="1" as="geometry" />
        </mxCell>
        <mxCell id="3sGwbU38S0w3fbwhB4b_-13" value="" style="edgeStyle=orthogonalEdgeStyle;rounded=0;orthogonalLoop=1;jettySize=auto;html=1;endArrow=none;endFill=0;" edge="1" parent="WIyWlLk6GJQsqaUBKTNV-1" source="3sGwbU38S0w3fbwhB4b_-0" target="3sGwbU38S0w3fbwhB4b_-12">
          <mxGeometry relative="1" as="geometry" />
        </mxCell>
        <mxCell id="3sGwbU38S0w3fbwhB4b_-25" value="" style="edgeStyle=orthogonalEdgeStyle;rounded=0;orthogonalLoop=1;jettySize=auto;html=1;endArrow=none;endFill=0;" edge="1" parent="WIyWlLk6GJQsqaUBKTNV-1" source="3sGwbU38S0w3fbwhB4b_-0" target="3sGwbU38S0w3fbwhB4b_-24">
          <mxGeometry relative="1" as="geometry" />
        </mxCell>
        <mxCell id="3sGwbU38S0w3fbwhB4b_-30" value="" style="edgeStyle=orthogonalEdgeStyle;rounded=0;orthogonalLoop=1;jettySize=auto;html=1;endArrow=none;endFill=0;" edge="1" parent="WIyWlLk6GJQsqaUBKTNV-1" source="3sGwbU38S0w3fbwhB4b_-0" target="3sGwbU38S0w3fbwhB4b_-24">
          <mxGeometry relative="1" as="geometry" />
        </mxCell>
        <mxCell id="3sGwbU38S0w3fbwhB4b_-43" value="" style="edgeStyle=orthogonalEdgeStyle;rounded=0;orthogonalLoop=1;jettySize=auto;html=1;" edge="1" parent="WIyWlLk6GJQsqaUBKTNV-1" source="3sGwbU38S0w3fbwhB4b_-0" target="3sGwbU38S0w3fbwhB4b_-4">
          <mxGeometry relative="1" as="geometry" />
        </mxCell>
        <mxCell id="3sGwbU38S0w3fbwhB4b_-52" style="rounded=0;orthogonalLoop=1;jettySize=auto;html=1;entryX=0.5;entryY=1;entryDx=0;entryDy=0;" edge="1" parent="WIyWlLk6GJQsqaUBKTNV-1" source="3sGwbU38S0w3fbwhB4b_-0" target="3sGwbU38S0w3fbwhB4b_-48">
          <mxGeometry relative="1" as="geometry" />
        </mxCell>
        <mxCell id="3sGwbU38S0w3fbwhB4b_-0" value="Account" style="rounded=0;whiteSpace=wrap;html=1;" vertex="1" parent="WIyWlLk6GJQsqaUBKTNV-1">
          <mxGeometry x="269" y="190" width="120" height="60" as="geometry" />
        </mxCell>
        <mxCell id="3sGwbU38S0w3fbwhB4b_-45" value="" style="edgeStyle=orthogonalEdgeStyle;rounded=0;orthogonalLoop=1;jettySize=auto;html=1;exitX=0;exitY=0.75;exitDx=0;exitDy=0;" edge="1" parent="WIyWlLk6GJQsqaUBKTNV-1" source="3sGwbU38S0w3fbwhB4b_-0" target="3sGwbU38S0w3fbwhB4b_-44">
          <mxGeometry relative="1" as="geometry" />
        </mxCell>
        <mxCell id="3sGwbU38S0w3fbwhB4b_-4" value="Thông tin nhân viên" style="ellipse;whiteSpace=wrap;html=1;rounded=0;" vertex="1" parent="WIyWlLk6GJQsqaUBKTNV-1">
          <mxGeometry x="119" y="155" width="80" height="55" as="geometry" />
        </mxCell>
        <mxCell id="3sGwbU38S0w3fbwhB4b_-6" value="phân quyền" style="ellipse;whiteSpace=wrap;html=1;rounded=0;" vertex="1" parent="WIyWlLk6GJQsqaUBKTNV-1">
          <mxGeometry x="199" y="80" width="80" height="60" as="geometry" />
        </mxCell>
        <mxCell id="3sGwbU38S0w3fbwhB4b_-10" value="" style="edgeStyle=orthogonalEdgeStyle;rounded=0;orthogonalLoop=1;jettySize=auto;html=1;exitX=0.5;exitY=0;exitDx=0;exitDy=0;" edge="1" parent="WIyWlLk6GJQsqaUBKTNV-1" target="3sGwbU38S0w3fbwhB4b_-11" source="3sGwbU38S0w3fbwhB4b_-0">
          <mxGeometry relative="1" as="geometry">
            <mxPoint x="439" y="180" as="sourcePoint" />
          </mxGeometry>
        </mxCell>
        <mxCell id="3sGwbU38S0w3fbwhB4b_-11" value="tentaikhoan(mã nhân viên)" style="ellipse;whiteSpace=wrap;html=1;rounded=0;fontStyle=4" vertex="1" parent="WIyWlLk6GJQsqaUBKTNV-1">
          <mxGeometry x="303.5" y="70" width="110" height="60" as="geometry" />
        </mxCell>
        <mxCell id="3sGwbU38S0w3fbwhB4b_-12" value="thuộc" style="rhombus;whiteSpace=wrap;html=1;rounded=0;" vertex="1" parent="WIyWlLk6GJQsqaUBKTNV-1">
          <mxGeometry x="429" y="195" width="80" height="50" as="geometry" />
        </mxCell>
        <mxCell id="3sGwbU38S0w3fbwhB4b_-16" style="edgeStyle=orthogonalEdgeStyle;rounded=0;orthogonalLoop=1;jettySize=auto;html=1;entryX=1;entryY=0.5;entryDx=0;entryDy=0;endArrow=none;endFill=0;" edge="1" parent="WIyWlLk6GJQsqaUBKTNV-1" source="3sGwbU38S0w3fbwhB4b_-14" target="3sGwbU38S0w3fbwhB4b_-12">
          <mxGeometry relative="1" as="geometry" />
        </mxCell>
        <mxCell id="3sGwbU38S0w3fbwhB4b_-19" value="" style="edgeStyle=orthogonalEdgeStyle;rounded=0;orthogonalLoop=1;jettySize=auto;html=1;" edge="1" parent="WIyWlLk6GJQsqaUBKTNV-1" source="3sGwbU38S0w3fbwhB4b_-14" target="3sGwbU38S0w3fbwhB4b_-18">
          <mxGeometry relative="1" as="geometry" />
        </mxCell>
        <mxCell id="3sGwbU38S0w3fbwhB4b_-23" value="" style="edgeStyle=orthogonalEdgeStyle;rounded=0;orthogonalLoop=1;jettySize=auto;html=1;" edge="1" parent="WIyWlLk6GJQsqaUBKTNV-1" source="3sGwbU38S0w3fbwhB4b_-14" target="3sGwbU38S0w3fbwhB4b_-22">
          <mxGeometry relative="1" as="geometry" />
        </mxCell>
        <mxCell id="3sGwbU38S0w3fbwhB4b_-14" value="Phòng Ban" style="whiteSpace=wrap;html=1;rounded=0;" vertex="1" parent="WIyWlLk6GJQsqaUBKTNV-1">
          <mxGeometry x="549" y="190" width="120" height="60" as="geometry" />
        </mxCell>
        <mxCell id="3sGwbU38S0w3fbwhB4b_-18" value="MaPB" style="ellipse;whiteSpace=wrap;html=1;rounded=0;fontStyle=4" vertex="1" parent="WIyWlLk6GJQsqaUBKTNV-1">
          <mxGeometry x="569" y="80" width="80" height="80" as="geometry" />
        </mxCell>
        <mxCell id="3sGwbU38S0w3fbwhB4b_-22" value="Thông tin phòng ban" style="ellipse;whiteSpace=wrap;html=1;rounded=0;" vertex="1" parent="WIyWlLk6GJQsqaUBKTNV-1">
          <mxGeometry x="709" y="130" width="80" height="80" as="geometry" />
        </mxCell>
        <mxCell id="3sGwbU38S0w3fbwhB4b_-27" value="" style="edgeStyle=orthogonalEdgeStyle;rounded=0;orthogonalLoop=1;jettySize=auto;html=1;endArrow=none;endFill=0;" edge="1" parent="WIyWlLk6GJQsqaUBKTNV-1" source="3sGwbU38S0w3fbwhB4b_-24" target="3sGwbU38S0w3fbwhB4b_-26">
          <mxGeometry relative="1" as="geometry" />
        </mxCell>
        <mxCell id="3sGwbU38S0w3fbwhB4b_-24" value="chấm công" style="rhombus;whiteSpace=wrap;html=1;rounded=0;" vertex="1" parent="WIyWlLk6GJQsqaUBKTNV-1">
          <mxGeometry x="339" y="320" width="100" height="50" as="geometry" />
        </mxCell>
        <mxCell id="3sGwbU38S0w3fbwhB4b_-29" value="" style="edgeStyle=orthogonalEdgeStyle;rounded=0;orthogonalLoop=1;jettySize=auto;html=1;" edge="1" parent="WIyWlLk6GJQsqaUBKTNV-1" source="3sGwbU38S0w3fbwhB4b_-26" target="3sGwbU38S0w3fbwhB4b_-28">
          <mxGeometry relative="1" as="geometry" />
        </mxCell>
        <mxCell id="3sGwbU38S0w3fbwhB4b_-26" value="Bảng công" style="whiteSpace=wrap;html=1;rounded=0;" vertex="1" parent="WIyWlLk6GJQsqaUBKTNV-1">
          <mxGeometry x="329" y="430" width="120" height="60" as="geometry" />
        </mxCell>
        <mxCell id="3sGwbU38S0w3fbwhB4b_-28" value="Thông tin" style="ellipse;whiteSpace=wrap;html=1;rounded=0;" vertex="1" parent="WIyWlLk6GJQsqaUBKTNV-1">
          <mxGeometry x="400" y="580" width="80" height="60" as="geometry" />
        </mxCell>
        <mxCell id="3sGwbU38S0w3fbwhB4b_-31" value="" style="edgeStyle=orthogonalEdgeStyle;rounded=0;orthogonalLoop=1;jettySize=auto;html=1;exitX=0.25;exitY=1;exitDx=0;exitDy=0;endArrow=none;endFill=0;" edge="1" parent="WIyWlLk6GJQsqaUBKTNV-1" target="3sGwbU38S0w3fbwhB4b_-32" source="3sGwbU38S0w3fbwhB4b_-0">
          <mxGeometry relative="1" as="geometry">
            <mxPoint x="209" y="260" as="sourcePoint" />
          </mxGeometry>
        </mxCell>
        <mxCell id="3sGwbU38S0w3fbwhB4b_-34" value="" style="edgeStyle=orthogonalEdgeStyle;rounded=0;orthogonalLoop=1;jettySize=auto;html=1;endArrow=none;endFill=0;" edge="1" parent="WIyWlLk6GJQsqaUBKTNV-1" source="3sGwbU38S0w3fbwhB4b_-32" target="3sGwbU38S0w3fbwhB4b_-33">
          <mxGeometry relative="1" as="geometry" />
        </mxCell>
        <mxCell id="3sGwbU38S0w3fbwhB4b_-32" value="có" style="rhombus;whiteSpace=wrap;html=1;rounded=0;" vertex="1" parent="WIyWlLk6GJQsqaUBKTNV-1">
          <mxGeometry x="209" y="320" width="100" height="50" as="geometry" />
        </mxCell>
        <mxCell id="3sGwbU38S0w3fbwhB4b_-36" value="" style="edgeStyle=orthogonalEdgeStyle;rounded=0;orthogonalLoop=1;jettySize=auto;html=1;" edge="1" parent="WIyWlLk6GJQsqaUBKTNV-1" source="3sGwbU38S0w3fbwhB4b_-33" target="3sGwbU38S0w3fbwhB4b_-35">
          <mxGeometry relative="1" as="geometry" />
        </mxCell>
        <mxCell id="3sGwbU38S0w3fbwhB4b_-39" value="" style="edgeStyle=orthogonalEdgeStyle;rounded=0;orthogonalLoop=1;jettySize=auto;html=1;" edge="1" parent="WIyWlLk6GJQsqaUBKTNV-1" source="3sGwbU38S0w3fbwhB4b_-33" target="3sGwbU38S0w3fbwhB4b_-38">
          <mxGeometry relative="1" as="geometry" />
        </mxCell>
        <mxCell id="3sGwbU38S0w3fbwhB4b_-33" value="Công việc" style="whiteSpace=wrap;html=1;rounded=0;" vertex="1" parent="WIyWlLk6GJQsqaUBKTNV-1">
          <mxGeometry x="169" y="430" width="120" height="60" as="geometry" />
        </mxCell>
        <mxCell id="3sGwbU38S0w3fbwhB4b_-35" value="mã công việc" style="ellipse;whiteSpace=wrap;html=1;rounded=0;fontStyle=4" vertex="1" parent="WIyWlLk6GJQsqaUBKTNV-1">
          <mxGeometry x="39" y="450" width="80" height="60" as="geometry" />
        </mxCell>
        <mxCell id="3sGwbU38S0w3fbwhB4b_-38" value="Thông tin công việc" style="ellipse;whiteSpace=wrap;html=1;rounded=0;" vertex="1" parent="WIyWlLk6GJQsqaUBKTNV-1">
          <mxGeometry x="69" y="550" width="140" height="65" as="geometry" />
        </mxCell>
        <mxCell id="3sGwbU38S0w3fbwhB4b_-40" value="Account(&lt;u&gt;tentk,&lt;/u&gt;&amp;nbsp;matkhau, thongtinnhanvien,maCv,maPb,maBC)" style="text;html=1;strokeColor=none;fillColor=none;align=center;verticalAlign=middle;whiteSpace=wrap;rounded=0;" vertex="1" parent="WIyWlLk6GJQsqaUBKTNV-1">
          <mxGeometry x="500" y="280" width="361" height="30" as="geometry" />
        </mxCell>
        <mxCell id="3sGwbU38S0w3fbwhB4b_-41" value="" style="edgeStyle=orthogonalEdgeStyle;rounded=0;orthogonalLoop=1;jettySize=auto;html=1;exitX=1;exitY=0.25;exitDx=0;exitDy=0;" edge="1" parent="WIyWlLk6GJQsqaUBKTNV-1" target="3sGwbU38S0w3fbwhB4b_-42" source="3sGwbU38S0w3fbwhB4b_-26">
          <mxGeometry relative="1" as="geometry">
            <mxPoint x="509" y="425" as="sourcePoint" />
          </mxGeometry>
        </mxCell>
        <mxCell id="3sGwbU38S0w3fbwhB4b_-42" value="Mã bảng công" style="ellipse;whiteSpace=wrap;html=1;rounded=0;fontStyle=4" vertex="1" parent="WIyWlLk6GJQsqaUBKTNV-1">
          <mxGeometry x="489" y="500" width="80" height="60" as="geometry" />
        </mxCell>
        <mxCell id="3sGwbU38S0w3fbwhB4b_-44" value="Thông tin cá nhân" style="ellipse;whiteSpace=wrap;html=1;rounded=0;" vertex="1" parent="WIyWlLk6GJQsqaUBKTNV-1">
          <mxGeometry x="119" y="235" width="80" height="55" as="geometry" />
        </mxCell>
        <mxCell id="3sGwbU38S0w3fbwhB4b_-48" value="mat khau" style="ellipse;whiteSpace=wrap;html=1;rounded=0;fontStyle=0" vertex="1" parent="WIyWlLk6GJQsqaUBKTNV-1">
          <mxGeometry x="414" y="110" width="110" height="60" as="geometry" />
        </mxCell>
        <mxCell id="3sGwbU38S0w3fbwhB4b_-53" value="Bangcong(MaBC,maNV,luongcoban,ngaynhanluong,songaycong,tongluong)" style="text;html=1;strokeColor=none;fillColor=none;align=center;verticalAlign=middle;whiteSpace=wrap;rounded=0;" vertex="1" parent="WIyWlLk6GJQsqaUBKTNV-1">
          <mxGeometry x="489" y="340" width="461" height="30" as="geometry" />
        </mxCell>
        <mxCell id="3sGwbU38S0w3fbwhB4b_-54" value="Phongban(&lt;u&gt;maPB,thongtin&lt;/u&gt;)" style="text;html=1;strokeColor=none;fillColor=none;align=center;verticalAlign=middle;whiteSpace=wrap;rounded=0;" vertex="1" parent="WIyWlLk6GJQsqaUBKTNV-1">
          <mxGeometry x="414" y="370" width="340" height="30" as="geometry" />
        </mxCell>
        <mxCell id="3sGwbU38S0w3fbwhB4b_-55" value="Congviec(&lt;u&gt;maCV,thongtin&lt;/u&gt;)" style="text;html=1;strokeColor=none;fillColor=none;align=center;verticalAlign=middle;whiteSpace=wrap;rounded=0;" vertex="1" parent="WIyWlLk6GJQsqaUBKTNV-1">
          <mxGeometry x="400" y="400" width="361" height="30" as="geometry" />
        </mxCell>
        <mxCell id="3sGwbU38S0w3fbwhB4b_-56" value="BangTTca.nhan(manv,thongtincanhan)" style="text;html=1;strokeColor=none;fillColor=none;align=center;verticalAlign=middle;whiteSpace=wrap;rounded=0;" vertex="1" parent="WIyWlLk6GJQsqaUBKTNV-1">
          <mxGeometry x="439" y="310" width="361" height="30" as="geometry" />
        </mxCell>
      </root>
    </mxGraphModel>
  </diagram>
</mxfile>
